<svg width="10" height="10" viewBox="0 0 10 10" fill="none" xmlns="http://www.w3.org/2000/svg">
<mask id="mask0_1213_6341" style="mask-type:alpha" maskUnits="userSpaceOnUse" x="0" y="0" width="10" height="10">
<path d="M3.39214 8.58683L7.5589 4.42007L5.57976 2.44094L1.413 6.6077C1.35564 6.66514 1.31489 6.73703 1.29508 6.81575L0.833252 9.16659L3.18364 8.70476C3.26256 8.68503 3.33474 8.64423 3.39214 8.58683ZM8.90403 3.07494C9.07214 2.90678 9.16659 2.67873 9.16659 2.44094C9.16659 2.20315 9.07214 1.9751 8.90403 1.80693L8.1929 1.09581C8.02474 0.927694 7.79669 0.833252 7.5589 0.833252C7.32111 0.833252 7.09306 0.927694 6.92489 1.09581L6.21377 1.80693L8.1929 3.78607L8.90403 3.07494Z" fill="#FE9C46"/>
</mask>
<g mask="url(#mask0_1213_6341)">
<rect width="10" height="10" fill="white"/>
</g>
</svg>
